<svg width="50" height="50" viewBox="0 0 50 50" fill="none"
    xmlns="http://www.w3.org/2000/svg">
    <path d="M0 0H50V50H0V0Z" fill="#516D2F"/>
    <path d="M49.7984 25C49.7984 38.6967 38.6951 49.8 24.9984 49.8C11.3018 49.8 0.198425 38.6967 0.198425 25C0.198425 11.3034 11.3018 0.200012 24.9984 0.200012C38.6951 0.200012 49.7984 11.3034 49.7984 25Z" fill="#FAFAFA"/>
    <path d="M43.75 24.0691C24.8611 7.26908 6.84525 17.6024 0.198425 24.8691V34.2691L0.875011 33.875C4.68454 25.875 11.8545 22.6917 14.5 22.125C10.5151 36.125 30.1 37.8 33.8 29.9L28 26.5C27.375 29.775 22.8108 29.1069 21.375 27.75C20.0501 26.4978 19.8549 24.4556 21.1 22.5691C23.6944 18.6382 34.623 24.6024 39.1865 28.7691L43.75 24.0691Z" fill="#516D2F"/>
</svg>
