<svg width="176" height="50" viewBox="0 0 176 50" fill="none" xmlns="http://www.w3.org/2000/svg">
<path d="M57.6435 33.0922C57.6435 33.9871 57.4914 34.7691 57.1872 35.4382C56.8829 36.1031 56.4519 36.6112 55.8941 36.9625C55.3363 37.3138 54.6856 37.4894 53.9419 37.4894C53.2151 37.4894 52.5707 37.3138 52.0086 36.9625C51.4466 36.6071 51.0093 36.1031 50.6966 35.4508C50.3881 34.7942 50.2296 34.0352 50.2212 33.1737V32.5151C50.2212 31.6369 50.3754 30.8611 50.6839 30.1878C50.9924 29.5145 51.4276 29.0002 51.9896 28.6447C52.5559 28.285 53.2024 28.1052 53.9292 28.1052C54.6687 28.1052 55.3194 28.283 55.8814 28.6384C56.4477 28.9897 56.8829 29.502 57.1872 30.1753C57.4914 30.8444 57.6435 31.6243 57.6435 32.5151V33.0922ZM56.4329 32.5025C56.4329 31.4194 56.2132 30.5893 55.7737 30.0122C55.3342 29.4309 54.7194 29.1402 53.9292 29.1402C53.1601 29.1402 52.5537 29.4309 52.1101 30.0122C51.6706 30.5893 51.4445 31.3922 51.4318 32.421V33.0922C51.4318 34.1418 51.6537 34.9677 52.0974 35.5699C52.5453 36.168 53.1601 36.467 53.9419 36.467C54.7278 36.467 55.3363 36.1847 55.7674 35.6201C56.1984 35.0514 56.4202 34.238 56.4329 33.18V32.5025Z" fill="#16330A"/>
<path d="M65.0786 34.0456C65.0786 35.0786 64.8398 35.9108 64.3623 36.5422C63.8848 37.1737 63.2383 37.4894 62.4228 37.4894C61.5903 37.4894 60.9353 37.2281 60.4578 36.7053V39.9735H59.2852V30.5767H60.3564L60.4135 31.3295C60.891 30.744 61.5544 30.4513 62.4037 30.4513C63.2277 30.4513 63.8785 30.7586 64.356 31.3734C64.8377 31.9881 65.0786 32.8433 65.0786 33.939V34.0456ZM63.906 33.9139C63.906 33.1486 63.7412 32.5443 63.4116 32.101C63.082 31.6578 62.6298 31.4361 62.0551 31.4361C61.3452 31.4361 60.8128 31.7477 60.4578 32.3708V35.6138C60.8086 36.2328 61.3452 36.5422 62.0678 36.5422C62.6298 36.5422 63.0756 36.3227 63.4052 35.8836C63.739 35.4403 63.906 34.7837 63.906 33.9139Z" fill="#16330A"/>
<path d="M68.1654 28.9332V30.5767H69.4458V31.4738H68.1654V35.6829C68.1654 35.9547 68.2225 36.1596 68.3366 36.2976C68.4506 36.4314 68.645 36.4983 68.9197 36.4983C69.0549 36.4983 69.2408 36.4732 69.4775 36.423V37.364C69.169 37.4476 68.869 37.4894 68.5774 37.4894C68.0534 37.4894 67.6583 37.3326 67.3921 37.019C67.1259 36.7053 66.9928 36.26 66.9928 35.6829V31.4738H65.7441V30.5767H66.9928V28.9332H68.1654Z" fill="#16330A"/>
<path d="M70.3839 33.9076C70.3839 33.2427 70.5149 32.6447 70.7769 32.1136C71.0431 31.5825 71.4107 31.1727 71.8798 30.8841C72.353 30.5956 72.8918 30.4513 73.4961 30.4513C74.4299 30.4513 75.1842 30.7712 75.7589 31.411C76.3378 32.0509 76.6273 32.9019 76.6273 33.9641V34.0456C76.6273 34.7064 76.4984 35.3002 76.2406 35.8271C75.9871 36.3499 75.6216 36.7576 75.1441 37.0503C74.6708 37.3431 74.1257 37.4894 73.5087 37.4894C72.5791 37.4894 71.8248 37.1695 71.2459 36.5297C70.6712 35.8899 70.3839 35.043 70.3839 33.9892V33.9076ZM71.5628 34.0456C71.5628 34.7984 71.7382 35.4027 72.0889 35.8585C72.4439 36.3143 72.9172 36.5422 73.5087 36.5422C74.1046 36.5422 74.5778 36.3122 74.9286 35.8522C75.2793 35.388 75.4547 34.7398 75.4547 33.9076C75.4547 33.1632 75.2751 32.5611 74.9159 32.101C74.5609 31.6369 74.0877 31.4048 73.4961 31.4048C72.9172 31.4048 72.4502 31.6327 72.0953 32.0885C71.7403 32.5443 71.5628 33.1967 71.5628 34.0456Z" fill="#16330A"/>
<path d="M79.2007 30.5767L79.2324 31.3295C79.7352 30.744 80.4135 30.4513 81.267 30.4513C82.2263 30.4513 82.8791 30.8151 83.2256 31.5428C83.4538 31.2166 83.7496 30.9531 84.113 30.7524C84.4806 30.5516 84.9138 30.4513 85.4124 30.4513C86.9167 30.4513 87.6816 31.2396 87.7069 32.8161V37.364H86.5343V32.8852C86.5343 32.4 86.4223 32.0383 86.1984 31.7999C85.9744 31.5574 85.5983 31.4361 85.0701 31.4361C84.6349 31.4361 84.2736 31.5658 83.9862 31.825C83.6989 32.0801 83.532 32.4251 83.4855 32.8601V37.364H82.3065V32.9165C82.3065 31.9296 81.8185 31.4361 80.8424 31.4361C80.0733 31.4361 79.5472 31.7602 79.2641 32.4084V37.364H78.0915V30.5767H79.2007Z" fill="#16330A"/>
<path d="M92.3277 37.4894C91.398 37.4894 90.6416 37.1883 90.0585 36.5861C89.4754 35.9798 89.1838 35.1706 89.1838 34.1585V33.9453C89.1838 33.272 89.3127 32.6719 89.5704 32.145C89.8324 31.6138 90.1958 31.1998 90.6607 30.9029C91.1297 30.6018 91.6368 30.4513 92.1819 30.4513C93.0735 30.4513 93.7665 30.7419 94.2609 31.3232C94.7553 31.9045 95.0025 32.7367 95.0025 33.8198V34.3028H90.3564C90.3733 34.9719 90.5698 35.5135 90.9459 35.9275C91.3262 36.3373 91.8079 36.5422 92.3911 36.5422C92.8052 36.5422 93.1559 36.4586 93.4432 36.2913C93.7306 36.124 93.982 35.9024 94.1975 35.6264L94.9138 36.1784C94.3391 37.0524 93.4771 37.4894 92.3277 37.4894ZM92.1819 31.4048C91.7086 31.4048 91.3114 31.5762 90.9903 31.9191C90.6691 32.2579 90.4705 32.7346 90.3944 33.3493H93.8299V33.2615C93.7961 32.6719 93.6355 32.216 93.3482 31.894C93.0608 31.5678 92.6721 31.4048 92.1819 31.4048Z" fill="#16330A"/>
<path d="M97.9562 28.9332V30.5767H99.2366V31.4738H97.9562V35.6829C97.9562 35.9547 98.0133 36.1596 98.1274 36.2976C98.2415 36.4314 98.4359 36.4983 98.7105 36.4983C98.8457 36.4983 99.0317 36.4732 99.2683 36.423V37.364C98.9598 37.4476 98.6598 37.4894 98.3682 37.4894C97.8443 37.4894 97.4492 37.3326 97.1829 37.019C96.9167 36.7053 96.7836 36.26 96.7836 35.6829V31.4738H95.5349V30.5767H96.7836V28.9332H97.9562Z" fill="#16330A"/>
<path d="M103.927 31.618C103.75 31.5888 103.557 31.5741 103.35 31.5741C102.581 31.5741 102.059 31.8982 101.785 32.5464V37.364H100.612V30.5767H101.753L101.772 31.3608C102.157 30.7545 102.702 30.4513 103.407 30.4513C103.636 30.4513 103.809 30.4806 103.927 30.5391V31.618Z" fill="#16330A"/>
<path d="M107.369 35.664L108.966 30.5767H110.221L107.464 38.4115C107.037 39.5407 106.359 40.1052 105.429 40.1052L105.207 40.0864L104.77 40.0049V39.0639L105.087 39.089C105.484 39.089 105.793 39.0096 106.012 38.8507C106.236 38.6917 106.42 38.4011 106.564 37.9787L106.824 37.2887L104.377 30.5767H105.657L107.369 35.664Z" fill="#16330A"/>
<path d="M50.4077 22.8077C50.2895 22.8077 50.1891 22.7692 50.1063 22.6923C50.0354 22.6026 50 22.4936 50 22.3654V9.80769C50 9.66667 50.0354 9.55769 50.1063 9.48077C50.1891 9.39103 50.2895 9.34615 50.4077 9.34615H54.4312C56.2155 9.34615 57.5035 9.78205 58.2952 10.6538C59.0869 11.5128 59.5004 12.8141 59.5359 14.5577C59.5477 14.9295 59.5536 15.4295 59.5536 16.0577C59.5536 16.6859 59.5477 17.1923 59.5359 17.5769C59.5004 18.7949 59.3114 19.7885 58.9687 20.5577C58.6378 21.3141 58.112 21.8782 57.3912 22.25C56.6704 22.6218 55.7133 22.8077 54.5198 22.8077H50.4077ZM54.4312 21.1731C55.2465 21.1731 55.8905 21.0513 56.3632 20.8077C56.8476 20.5641 57.1962 20.1795 57.4089 19.6538C57.6334 19.1154 57.7575 18.3974 57.7811 17.5C57.8048 16.7308 57.8166 16.25 57.8166 16.0577C57.8166 15.8526 57.8048 15.3782 57.7811 14.6346C57.7575 13.3654 57.4798 12.4423 56.9481 11.8654C56.4163 11.2756 55.5478 10.9808 54.3426 10.9808H51.737V21.1731H54.4312Z" fill="#171F0D"/>
<path d="M62.3976 22.8077C62.2794 22.8077 62.179 22.7692 62.0963 22.6923C62.0254 22.6026 61.9899 22.4936 61.9899 22.3654V13.2692C61.9899 13.141 62.0254 13.0321 62.0963 12.9423C62.179 12.8526 62.2794 12.8077 62.3976 12.8077H63.2129C63.3311 12.8077 63.4315 12.8526 63.5143 12.9423C63.597 13.0321 63.6383 13.141 63.6383 13.2692V14.1154C64.1228 13.2436 64.95 12.8077 66.1198 12.8077H66.8111C66.9292 12.8077 67.0237 12.8526 67.0946 12.9423C67.1774 13.0192 67.2187 13.1218 67.2187 13.25V14.0385C67.2187 14.1667 67.1774 14.2692 67.0946 14.3462C67.0237 14.4231 66.9292 14.4615 66.8111 14.4615H65.7476C65.1095 14.4615 64.6073 14.6667 64.241 15.0769C63.8747 15.4744 63.6915 16.0192 63.6915 16.7115V22.3654C63.6915 22.4936 63.6501 22.6026 63.5674 22.6923C63.4847 22.7692 63.3843 22.8077 63.2661 22.8077H62.3976Z" fill="#171F0D"/>
<path d="M68.0548 22.8077C67.9367 22.8077 67.8362 22.7692 67.7535 22.6923C67.6826 22.6026 67.6472 22.4936 67.6472 22.3654V20.9808C67.6472 20.8526 67.6826 20.75 67.7535 20.6731C67.8362 20.5833 67.9367 20.5385 68.0548 20.5385H69.331C69.4492 20.5385 69.5496 20.5833 69.6323 20.6731C69.715 20.75 69.7564 20.8526 69.7564 20.9808V22.3654C69.7564 22.4936 69.715 22.6026 69.6323 22.6923C69.5496 22.7692 69.4492 22.8077 69.331 22.8077H68.0548Z" fill="#171F0D"/>
<path d="M77.2197 22.8077C77.1016 22.8077 77.0011 22.7692 76.9184 22.6923C76.8475 22.6026 76.8121 22.4936 76.8121 22.3654V9.80769C76.8121 9.66667 76.8475 9.55769 76.9184 9.48077C77.0011 9.39103 77.1016 9.34615 77.2197 9.34615H78.106C78.236 9.34615 78.3364 9.39103 78.4073 9.48077C78.49 9.55769 78.5314 9.66667 78.5314 9.80769V14.5769L83.2639 9.65385C83.4529 9.44872 83.6834 9.34615 83.9551 9.34615H84.9123C85.0068 9.34615 85.0895 9.38462 85.1604 9.46154C85.2313 9.53846 85.2668 9.62821 85.2668 9.73077C85.2668 9.83333 85.2431 9.91667 85.1959 9.98077L79.7189 15.7885L85.5504 22.1538C85.6094 22.2308 85.639 22.3205 85.639 22.4231C85.639 22.5256 85.6035 22.6154 85.5326 22.6923C85.4617 22.7692 85.379 22.8077 85.2845 22.8077H84.2919C84.0319 22.8077 83.8015 22.6987 83.6006 22.4808L78.5314 17.0769V22.3654C78.5314 22.4936 78.49 22.6026 78.4073 22.6923C78.3246 22.7692 78.2241 22.8077 78.106 22.8077H77.2197Z" fill="#171F0D"/>
<path d="M89.6758 23C89.0968 23 88.5591 22.8718 88.0628 22.6154C87.5665 22.359 87.1707 22.0128 86.8753 21.5769C86.5917 21.1282 86.4499 20.6346 86.4499 20.0962C86.4499 19.25 86.7689 18.5577 87.407 18.0192C88.0569 17.4679 88.9313 17.109 90.0303 16.9423L92.6713 16.5385V15.9808C92.6713 14.6731 91.98 14.0192 90.5975 14.0192C90.0775 14.0192 89.6521 14.141 89.3213 14.3846C88.9904 14.6154 88.7423 14.891 88.5768 15.2115C88.5414 15.3269 88.4941 15.4103 88.435 15.4615C88.3878 15.5128 88.3169 15.5385 88.2224 15.5385H87.4602C87.3538 15.5385 87.2593 15.5 87.1766 15.4231C87.1057 15.3333 87.0702 15.2308 87.0702 15.1154C87.0821 14.8077 87.212 14.4615 87.4602 14.0769C87.7202 13.6795 88.116 13.3397 88.6477 13.0577C89.1795 12.7628 89.8353 12.6154 90.6152 12.6154C91.9386 12.6154 92.8899 12.9551 93.4689 13.6346C94.0479 14.3013 94.3374 15.1346 94.3374 16.1346V22.3654C94.3374 22.4936 94.296 22.6026 94.2133 22.6923C94.1424 22.7692 94.0479 22.8077 93.9297 22.8077H93.1144C92.9962 22.8077 92.8958 22.7692 92.8131 22.6923C92.7422 22.6026 92.7067 22.4936 92.7067 22.3654V21.5385C92.4467 21.9487 92.0686 22.2949 91.5723 22.5769C91.076 22.859 90.4438 23 89.6758 23ZM90.048 21.5577C90.8161 21.5577 91.4423 21.2885 91.9268 20.75C92.4231 20.1987 92.6713 19.4103 92.6713 18.3846V17.8462L90.6152 18.1731C89.7762 18.3013 89.144 18.5192 88.7186 18.8269C88.2933 19.1218 88.0806 19.5 88.0806 19.9615C88.0806 20.4744 88.2755 20.8718 88.6655 21.1538C89.0554 21.4231 89.5163 21.5577 90.048 21.5577Z" fill="#171F0D"/>
<path d="M100.397 22.8077C98.53 22.8077 97.5965 21.6795 97.5965 19.4231V14.3462H96.214C96.0958 14.3462 95.9954 14.3077 95.9127 14.2308C95.8418 14.141 95.8063 14.0321 95.8063 13.9038V13.25C95.8063 13.1218 95.8418 13.0192 95.9127 12.9423C95.9954 12.8526 96.0958 12.8077 96.214 12.8077H97.5965V9.59615C97.5965 9.46795 97.632 9.36539 97.7029 9.28846C97.7856 9.19872 97.886 9.15385 98.0042 9.15385H98.8372C98.9554 9.15385 99.0499 9.19872 99.1208 9.28846C99.2035 9.36539 99.2449 9.46795 99.2449 9.59615V12.8077H101.443C101.561 12.8077 101.655 12.8526 101.726 12.9423C101.809 13.0192 101.85 13.1218 101.85 13.25V13.9038C101.85 14.0321 101.809 14.141 101.726 14.2308C101.655 14.3077 101.561 14.3462 101.443 14.3462H99.2449V19.2885C99.2449 19.9295 99.3453 20.4167 99.5462 20.75C99.7471 21.0705 100.078 21.2308 100.539 21.2308H101.62C101.738 21.2308 101.833 21.2756 101.904 21.3654C101.986 21.4423 102.028 21.5449 102.028 21.6731V22.3654C102.028 22.4936 101.986 22.6026 101.904 22.6923C101.833 22.7692 101.738 22.8077 101.62 22.8077H100.397Z" fill="#171F0D"/>
<path d="M103.988 10.9423C103.87 10.9423 103.77 10.9038 103.687 10.8269C103.616 10.7372 103.581 10.6282 103.581 10.5V9.46154C103.581 9.33333 103.616 9.22436 103.687 9.13462C103.77 9.04487 103.87 9 103.988 9H105.105C105.223 9 105.324 9.04487 105.406 9.13462C105.489 9.22436 105.531 9.33333 105.531 9.46154V10.5C105.531 10.6282 105.489 10.7372 105.406 10.8269C105.324 10.9038 105.223 10.9423 105.105 10.9423H103.988ZM104.13 22.8077C104.012 22.8077 103.912 22.7692 103.829 22.6923C103.758 22.6026 103.723 22.4936 103.723 22.3654V13.25C103.723 13.1218 103.758 13.0192 103.829 12.9423C103.912 12.8526 104.012 12.8077 104.13 12.8077H104.981C105.099 12.8077 105.194 12.8526 105.265 12.9423C105.347 13.0192 105.389 13.1218 105.389 13.25V22.3654C105.389 22.4936 105.347 22.6026 105.265 22.6923C105.194 22.7692 105.099 22.8077 104.981 22.8077H104.13Z" fill="#171F0D"/>
<path d="M111.702 23C110.485 23 109.51 22.5962 108.777 21.7885C108.057 20.9679 107.661 19.8526 107.59 18.4423L107.572 17.7885L107.59 17.1538C107.673 15.7692 108.074 14.6667 108.795 13.8462C109.528 13.0256 110.491 12.6154 111.684 12.6154C112.996 12.6154 114.012 13.0705 114.733 13.9808C115.454 14.8782 115.814 16.0962 115.814 17.6346V17.9615C115.814 18.0897 115.773 18.1987 115.69 18.2885C115.619 18.3654 115.525 18.4038 115.407 18.4038H109.274V18.5769C109.309 19.4103 109.54 20.1218 109.965 20.7115C110.402 21.2885 110.975 21.5769 111.684 21.5769C112.228 21.5769 112.671 21.4615 113.014 21.2308C113.368 20.9872 113.628 20.7372 113.794 20.4808C113.9 20.3269 113.977 20.2372 114.024 20.2115C114.083 20.1731 114.184 20.1538 114.325 20.1538H115.194C115.3 20.1538 115.389 20.1859 115.46 20.25C115.531 20.3141 115.566 20.4038 115.566 20.5192C115.566 20.8013 115.401 21.141 115.07 21.5385C114.751 21.9359 114.296 22.2821 113.705 22.5769C113.126 22.859 112.458 23 111.702 23ZM114.13 17.0769V17.0192C114.13 16.1346 113.906 15.4167 113.457 14.8654C113.02 14.3013 112.429 14.0192 111.684 14.0192C110.94 14.0192 110.349 14.3013 109.912 14.8654C109.486 15.4167 109.274 16.1346 109.274 17.0192V17.0769H114.13Z" fill="#171F0D"/>
<path d="M124.323 22.8077C124.016 22.8077 123.833 22.6346 123.774 22.2885L121.487 9.94231C121.475 9.87821 121.469 9.80769 121.469 9.73077C121.469 9.62821 121.505 9.53846 121.576 9.46154C121.647 9.38462 121.729 9.34615 121.824 9.34615H122.746C122.994 9.34615 123.136 9.45513 123.171 9.67308L124.979 19.5962L126.893 12.7885C127 12.4808 127.189 12.3269 127.46 12.3269H128.116C128.27 12.3269 128.388 12.3718 128.471 12.4615C128.565 12.5513 128.63 12.6603 128.666 12.7885L130.598 19.5962L132.388 9.67308C132.423 9.45513 132.571 9.34615 132.831 9.34615H133.753C133.847 9.34615 133.93 9.38462 134.001 9.46154C134.072 9.53846 134.107 9.62821 134.107 9.73077L134.089 9.94231L131.803 22.2885C131.732 22.6346 131.549 22.8077 131.254 22.8077H130.562C130.255 22.8077 130.06 22.6474 129.977 22.3269L127.779 15L125.599 22.3269C125.505 22.6474 125.31 22.8077 125.014 22.8077H124.323Z" fill="#171F0D"/>
<path d="M135.838 22.8077C135.72 22.8077 135.619 22.7692 135.537 22.6923C135.466 22.6026 135.43 22.4936 135.43 22.3654V20.9808C135.43 20.8526 135.466 20.75 135.537 20.6731C135.619 20.5833 135.72 20.5385 135.838 20.5385H137.114C137.232 20.5385 137.333 20.5833 137.415 20.6731C137.498 20.75 137.54 20.8526 137.54 20.9808V22.3654C137.54 22.4936 137.498 22.6026 137.415 22.6923C137.333 22.7692 137.232 22.8077 137.114 22.8077H135.838Z" fill="#171F0D"/>
<path d="M149.062 23C147.478 23 146.273 22.5385 145.446 21.6154C144.631 20.6923 144.193 19.4167 144.134 17.7885C144.123 17.4423 144.117 16.8782 144.117 16.0962C144.117 15.3013 144.123 14.7244 144.134 14.3654C144.193 12.75 144.637 11.4808 145.464 10.5577C146.291 9.62179 147.49 9.15385 149.062 9.15385C150.114 9.15385 151.006 9.35897 151.738 9.76923C152.471 10.1667 153.026 10.6923 153.404 11.3462C153.783 12 153.989 12.6987 154.025 13.4423V13.4808C154.025 13.5833 153.983 13.6731 153.901 13.75C153.83 13.8141 153.747 13.8462 153.653 13.8462H152.678C152.441 13.8462 152.294 13.6987 152.235 13.4038C152.034 12.4423 151.673 11.7692 151.153 11.3846C150.633 10.9872 149.936 10.7885 149.062 10.7885C147.029 10.7885 145.978 12.0128 145.907 14.4615C145.895 14.8077 145.889 15.3397 145.889 16.0577C145.889 16.7756 145.895 17.3205 145.907 17.6923C145.978 20.141 147.029 21.3654 149.062 21.3654C149.936 21.3654 150.633 21.1731 151.153 20.7885C151.685 20.391 152.046 19.7115 152.235 18.75C152.27 18.5833 152.323 18.4679 152.394 18.4038C152.465 18.3397 152.56 18.3077 152.678 18.3077H153.653C153.759 18.3077 153.848 18.3462 153.918 18.4231C154.001 18.4872 154.037 18.5769 154.025 18.6923C153.989 19.4487 153.783 20.1538 153.404 20.8077C153.026 21.4615 152.471 21.9936 151.738 22.4038C151.006 22.8013 150.114 23 149.062 23Z" fill="#171F0D"/>
<path d="M156.595 22.8077C156.477 22.8077 156.377 22.7692 156.294 22.6923C156.223 22.6026 156.187 22.4936 156.187 22.3654V9.59615C156.187 9.46795 156.223 9.36539 156.294 9.28846C156.377 9.19872 156.477 9.15385 156.595 9.15385H157.481C157.6 9.15385 157.694 9.19872 157.765 9.28846C157.848 9.36539 157.889 9.46795 157.889 9.59615V14.0769C158.232 13.6026 158.633 13.2436 159.094 13C159.555 12.7436 160.128 12.6154 160.814 12.6154C161.948 12.6154 162.828 13.0128 163.455 13.8077C164.093 14.5897 164.412 15.6346 164.412 16.9423V22.3654C164.412 22.4936 164.37 22.6026 164.288 22.6923C164.217 22.7692 164.122 22.8077 164.004 22.8077H163.118C163 22.8077 162.899 22.7692 162.816 22.6923C162.746 22.6026 162.71 22.4936 162.71 22.3654V17.0385C162.71 16.1282 162.503 15.4231 162.09 14.9231C161.688 14.4231 161.103 14.1731 160.335 14.1731C159.591 14.1731 158.994 14.4295 158.545 14.9423C158.108 15.4423 157.889 16.141 157.889 17.0385V22.3654C157.889 22.4936 157.848 22.6026 157.765 22.6923C157.694 22.7692 157.6 22.8077 157.481 22.8077H156.595Z" fill="#171F0D"/>
<path d="M170.409 23C169.287 23 168.418 22.609 167.804 21.8269C167.189 21.0321 166.882 19.9808 166.882 18.6731V13.25C166.882 13.1218 166.918 13.0192 166.988 12.9423C167.071 12.8526 167.172 12.8077 167.29 12.8077H168.176C168.294 12.8077 168.389 12.8526 168.46 12.9423C168.542 13.0192 168.584 13.1218 168.584 13.25V18.5769C168.584 20.4872 169.352 21.4423 170.888 21.4423C171.632 21.4423 172.223 21.1923 172.66 20.6923C173.098 20.1795 173.316 19.4744 173.316 18.5769V13.25C173.316 13.1218 173.352 13.0192 173.423 12.9423C173.505 12.8526 173.606 12.8077 173.724 12.8077H174.61C174.728 12.8077 174.823 12.8526 174.894 12.9423C174.965 13.0192 175 13.1218 175 13.25V22.3654C175 22.4936 174.965 22.6026 174.894 22.6923C174.823 22.7692 174.728 22.8077 174.61 22.8077H173.777C173.659 22.8077 173.558 22.7692 173.476 22.6923C173.405 22.6026 173.369 22.4936 173.369 22.3654V21.5192C173.038 22.0064 172.637 22.3782 172.164 22.6346C171.691 22.8782 171.106 23 170.409 23Z" fill="#171F0D"/>
<line x1="45.5" y1="2.18557e-08" x2="45.5" y2="50" stroke="#16330A"/>
<path d="M0 5H40V45H0V5Z" fill="#516D2F"/>
<path d="M39.8387 25C39.8387 35.9573 30.9561 44.84 19.9987 44.84C9.04139 44.84 0.158722 35.9573 0.158722 25C0.158722 14.0426 9.04139 5.15997 19.9987 5.15997C30.9561 5.15997 39.8387 14.0426 39.8387 25Z" fill="#FAFAFA"/>
<path d="M35 24.2553C19.8889 10.8153 5.47618 19.0819 0.158722 24.8953V32.4153L0.699991 32.1C3.74761 25.7 9.48359 23.1533 11.6 22.7C8.41205 33.9 24.08 35.24 27.04 28.92L22.4 26.2C21.9 28.82 18.2486 28.2856 17.1 27.2C16.0401 26.1983 15.8839 24.5645 16.88 23.0553C18.9555 19.9105 27.6984 24.6819 31.3492 28.0153L35 24.2553Z" fill="#516D2F"/>
</svg>
